<?xml version="1.0" encoding="UTF-8" standalone="no"?>
<svg
   xmlns:dc="http://purl.org/dc/elements/1.1/"
   xmlns:cc="http://creativecommons.org/ns#"
   xmlns:rdf="http://www.w3.org/1999/02/22-rdf-syntax-ns#"
   xmlns:svg="http://www.w3.org/2000/svg"
   xmlns="http://www.w3.org/2000/svg"
   xmlns:sodipodi="http://sodipodi.sourceforge.net/DTD/sodipodi-0.dtd"
   xmlns:inkscape="http://www.inkscape.org/namespaces/inkscape"
   width="2048"
   height="2048"
   viewBox="0 0 541.86665 541.86668"
   version="1.1"
   id="svg2075"
   inkscape:version="1.0.1 (3bc2e813f5, 2020-09-07)"
   sodipodi:docname="logo_wob.svg">
  <defs
     id="defs2069">
    <clipPath
       clipPathUnits="userSpaceOnUse"
       id="a">
      <path
         d="M 33.275487,27.710971 V 107.48853 H 102.19118 V 27.710971 H 86.770414 c -0.0044,0.08821 -0.0082,0.17638 -0.01188,0.264584 -0.02151,0.484357 -0.04295,0.968856 -0.06615,1.453139 -0.01474,0.307829 -0.02962,0.531847 -0.03462,0.848527 -0.0016,0.09611 0.0027,0.192235 0.0041,0.288356 0.0076,0.404738 0.02647,0.810588 0.01498,1.21543 -0.0024,0.0847 -0.01119,0.16932 -0.0186,0.25373 -0.03363,0.383677 -0.02672,0.311073 -0.07131,0.623218 -0.23386,1.637024 -1.887503,1.400865 -1.653646,-0.236162 0.04186,-0.293023 0.03437,-0.214006 0.06201,-0.545703 0.006,-0.07132 0.01341,-0.142391 0.01497,-0.21394 0.0054,-0.235505 -0.0045,-0.390046 -0.0098,-0.618566 -0.0034,-0.148799 -0.006,-0.297157 -0.0088,-0.445969 -2.65e-4,-0.02082 -5.29e-4,-0.04169 -0.0011,-0.06253 -0.03909,5.29e-4 -0.07818,0.0016 -0.117305,5.29e-4 -0.254133,0.308386 -0.849614,0.216792 -1.154967,0.190686 -0.422238,-0.05077 -0.845455,-0.09614 -1.269175,-0.136943 -0.0615,0.0054 -0.123036,0.0098 -0.184483,0.0155 -0.227576,0.02122 -0.291116,0.0051 -0.455271,0.141592 -0.491747,0.271703 -0.593763,0.36817 -1.053682,-0.272336 -0.341268,-0.01056 -0.682964,-0.01355 -1.024745,-0.0041 -0.324911,0.02416 -0.754086,0.05284 -1.070218,0.09302 -0.100727,0.01281 -0.199536,0.03639 -0.299207,0.05581 -0.122878,0.02392 -0.246018,0.04778 -0.368453,0.0739 -0.04127,0.0088 -0.130728,0.06159 -0.143143,0.04754 -0.139768,0.145148 -0.304749,0.2584 -0.466121,0.160198 -0.05851,-0.03561 -0.113245,-0.0764 -0.1664,-0.119888 -0.237151,0.08671 -0.470093,0.170087 -0.738973,0.273883 -0.124272,0.04798 -0.245065,0.105569 -0.37052,0.150379 -0.07031,0.02511 -0.148296,0.02746 -0.216006,0.05891 -0.107333,0.04985 -0.187647,0.163454 -0.304374,0.182935 -0.23699,0.03954 -0.480655,-0.008 -0.720886,-0.01188 -0.03797,-0.06317 -0.0814,-0.124323 -0.125574,-0.185 0.03074,0.355317 -0.3243,0.719043 -1.03818,0.689362 -0.0046,-1.94e-4 -0.0093,-1.33e-4 -0.01394,-5.3e-4 -0.276651,0.310997 -0.652886,0.682266 -1.046967,1.033013 -0.176596,0.386297 -0.479465,0.674412 -0.944645,0.759643 -0.774446,0.537382 -1.112356,0.697597 -1.879989,1.107426 -0.856591,0.291878 -1.665623,0.44018 -2.558499,0.287322 -0.02768,-0.0047 -0.05629,-0.01013 -0.08475,-0.01447 -0.05024,0.01775 -0.09178,0.03461 -0.144695,0.05271 -0.257212,0.08796 -0.521986,0.162324 -0.791681,0.196368 -0.835147,0.105418 -1.189517,0.05286 -1.959571,0.0021 -0.432652,-0.124616 -1.598194,-0.413036 -2.073259,-0.691949 -1.238641,-0.72721 -2.172274,-1.789163 -3.078882,-2.875275 -0.408548,0.06922 -0.770477,0.09804 -1.292945,0.147794 -0.597077,0.05254 -1.194416,0.103068 -1.79162,0.153995 -0.03906,0.0092 -0.07798,0.01998 -0.11679,0.02894 -0.651087,0.150514 -1.315643,0.177948 -1.974556,0.08578 -0.198594,-0.122351 -0.41233,-0.223417 -0.595829,-0.367419 -0.11789,-0.09251 -0.218091,-0.218324 -0.304892,-0.363802 -0.119394,-0.02199 -0.238165,-0.04723 -0.320911,-0.07648 -0.03779,-0.01336 -0.07394,-0.03085 -0.110588,-0.04703 0.006,0.07417 0.01349,0.139097 0.03669,0.303342 0.01516,0.107334 0.01577,0.218464 0.04806,0.321945 0.04007,0.128453 0.111234,0.24492 0.166916,0.367419 h 5.29e-4 c 1.368568,3.010848 -1.673109,4.393192 -3.041677,1.382345 -0.159731,-0.351419 -0.208804,-0.452736 -0.2682,-0.665075 -0.498321,-0.438314 -0.97722,-0.901774 -1.480013,-1.334286 0.06717,-0.153125 0.165285,-0.277672 0.27337,-0.393774 0.03461,-0.06473 0.0693,-0.129551 0.103868,-0.194305 0.08912,-0.10886 0.178051,-0.217733 0.267168,-0.326593 0.02997,-0.109816 0.06074,-0.219523 0.08062,-0.330214 0.0271,-0.172661 0.05163,-0.269176 0.10025,-0.408244 -0.0044,-0.169931 0.0016,-0.340489 0.0067,-0.510045 0.01318,-0.441547 0.08502,-0.82051 0.197921,-1.141016 -0.0089,-0.0744 -0.0163,-0.148428 -0.01704,-0.223242 -0.0016,-0.164817 0.004,-0.329819 0.01344,-0.494543 z m 50.556089,0.999422 c -0.02011,0.01662 -0.03082,0.02511 -0.04599,0.03772 -1.1e-5,2.62e-4 1.1e-5,7.94e-4 0,0.0011 0.01476,-0.01214 0.02909,-0.0236 0.04599,-0.03876 z m -29.948042,0.741039 c -0.0019,0.0055 -0.0038,0.01103 -0.0057,0.01654 0.0032,-0.0032 0.0074,-0.0053 0.01035,-0.0088 0.0019,-0.0024 -0.0024,-0.0042 -0.0047,-0.0078 z m 24.008868,1.189075 c -0.0024,0.0011 -0.0033,0.0016 -0.0057,0.0026 -0.193548,-0.0099 -0.05649,0.05996 -0.04341,0.04392 0.01291,-0.01582 0.03167,-0.03119 0.04909,-0.04651 z m -16.158186,0.125058 c -0.32208,0.199009 -0.661305,0.37062 -1.002006,0.535884 -0.06753,0.03276 -0.137118,0.06196 -0.205672,0.09302 0.645576,0.7649 1.357948,1.535234 2.183845,2.038636 0.325535,0.198416 1.375719,0.505103 1.662948,0.596863 0.569111,0.04372 0.955752,0.09356 1.551845,0.03152 0.06155,-0.0064 0.12214,-0.02077 0.182933,-0.03256 -0.02249,-0.06205 -0.04075,-0.113011 -0.06976,-0.189134 -0.11131,-0.188876 -0.218979,-0.379633 -0.33383,-0.566375 -0.09936,-0.161558 -0.21191,-0.315296 -0.308507,-0.478523 -0.332618,-0.562028 -0.63092,-1.140698 -0.919842,-1.724443 -0.03087,0.0024 -0.06162,0.0053 -0.0925,0.0078 -0.171413,0.01289 -0.344022,0.02154 -0.515731,0.01344 -0.578242,-0.02724 -0.847701,-0.07949 -1.380792,-0.160713 -0.250925,-0.05507 -0.502393,-0.108411 -0.752927,-0.165365 z m 4.212145,0.02635 c -0.03468,0.01045 -0.0683,0.01955 -0.103351,0.02997 0.214376,0.422654 0.435094,0.841928 0.67696,1.250569 0.109633,0.185227 0.239681,0.358331 0.3483,0.544153 0.153609,0.262792 0.291687,0.533903 0.4377,0.800984 0.01281,0.06277 0.04914,0.125417 0.03876,0.188618 -0.0013,0.0085 -0.0079,0.01537 -0.01344,0.02273 0.530582,-0.24157 0.845912,-0.532715 1.41025,-1.141531 0.118443,-0.283046 0.246182,-0.582473 0.365353,-0.885735 -0.492797,0.039 -0.728438,-0.006 -1.26659,-0.07648 -0.03584,-0.01169 -0.07297,-0.0236 -0.109037,-0.03514 -0.09196,0.06869 -0.185002,0.136017 -0.275437,0.206706 -0.131056,0.07874 -0.536993,0.354073 -0.671277,0.227893 -0.295405,-0.277582 -0.475424,-0.656749 -0.644403,-1.03043 -0.06102,-0.03146 -0.124831,-0.06475 -0.193789,-0.102317 z m 4.792475,1.540989 c -0.154998,0.09884 -0.317032,0.154871 -0.523483,0.08785 -0.07356,0.178091 -0.151326,0.363141 -0.238745,0.577226 -0.126521,0.15653 -0.242861,0.298426 -0.352951,0.429429 0.380836,-0.201427 0.716761,-0.388051 1.185974,-0.705381 -0.02384,-0.126254 -0.04503,-0.247434 -0.07079,-0.389126 z m 0.280601,0.210844 c -0.01521,-0.0021 -0.02865,0.02805 -0.04237,0.06046 0.01868,-0.01331 0.0402,-0.03039 0.05943,-0.04444 -0.0057,-0.0069 -0.01154,-0.01527 -0.01707,-0.01603 z"
         fill="#ff0000"
         stroke-width="0.264583"
         id="path2080" />
    </clipPath>
    <clipPath
       clipPathUnits="userSpaceOnUse"
       id="b">
      <path
         d="M 46.70516,18.394226 V 64.459115 H 88.761506 V 18.394226 Z m 15.11949,6.548437 v 5.29e-4 c 0.490403,3.71e-4 0.917268,0.02316 1.438672,0.215491 0.132805,0.04899 0.273034,0.09997 0.376203,0.196887 0.444471,0.417537 0.389851,0.480126 0.492477,0.984436 0.0057,0.08988 0.0063,0.179821 0.0093,0.269753 0.04153,-0.03766 0.07868,-0.07091 0.128156,-0.11679 0.441325,-0.205768 0.797438,-0.414927 1.270725,-0.508497 0.604763,-0.119526 0.791414,-0.10154 1.347203,-0.12609 0.617262,-0.02726 0.886452,-0.04271 1.468646,-0.0739 0.341784,0.02786 0.948219,0.02727 1.392679,0.208255 0.113512,-0.21639 0.283303,-0.395961 0.554488,-0.432531 0.199173,-0.02686 0.401722,0.05703 0.588079,0.132292 0.177702,0.07176 0.560993,0.701974 0.593243,0.748274 0.0021,0.0032 0.0046,0.0062 0.0067,0.0093 0.157726,0.04331 0.312158,0.0926 0.430983,0.198954 0.05348,0.04787 0.08633,0.09561 0.110588,0.143661 0.488804,-0.397972 0.661749,-0.529908 0.826307,-0.383439 0.06084,-0.02518 0.12098,-0.04957 0.190685,-0.08268 0.01603,-0.0076 0.03549,-0.0011 0.05323,-0.0016 0.105191,-0.0028 0.0643,-0.0019 0.179319,-0.0016 0.218091,0.10294 0.420386,0.249499 0.654222,0.308509 0.104664,0.02641 -0.150495,-0.125664 -0.247528,-0.199471 -0.08738,-0.03184 -0.179589,-0.05054 -0.265618,-0.0863 -0.08079,-0.03358 0.167444,0.05051 0.251147,0.07596 0.0031,0.0025 0.01087,0.0076 0.01447,0.01034 0.01635,0.006 0.03379,0.0092 0.04961,0.01654 0.157652,0.07305 0.23587,0.178427 0.351914,0.300241 0.05241,0.07995 0.109733,0.157027 0.157615,0.239778 0.02729,0.04716 0.07382,0.156673 0.116271,0.260448 0.09119,-0.109953 0.211746,-0.24597 0.456819,-0.511079 0.240064,-0.259686 0.315553,-0.311165 0.367938,-0.35295 0.01556,-0.03433 0.01021,-0.0237 0.02739,-0.06149 0.03572,-0.07865 0.05351,-0.237673 0.137977,-0.219625 0.437502,0.0935 0.826434,0.342862 1.239716,0.514182 -0.126987,0.285797 -0.13584,0.343363 -0.270783,0.504878 -0.03318,0.09515 -0.06552,0.190777 -0.09767,0.286287 -0.0097,0.02866 -0.02159,0.05624 -0.03152,0.08475 0.07166,2.62e-4 0.14333,-1.93e-4 0.214974,0 0.312727,5.29e-4 0.625713,7.94e-4 0.938442,5.29e-4 0.0019,-3e-6 0.0034,-8e-6 0.0052,0 0.05231,-0.0048 0.09886,-0.0081 0.152963,-0.01034 0.102836,-0.04223 0.240639,-0.08081 0.254765,-0.08423 0.44138,-0.106103 0.562946,-0.116475 0.969449,-0.175702 0.262083,-0.01648 0.523716,-0.01418 0.784966,-0.0052 0.140578,-0.02003 0.28167,-0.03758 0.422711,-0.05374 0.295807,-0.03392 0.597027,-0.0414 0.896586,-0.04599 0.04145,-0.0085 0.08267,-0.01828 0.124542,-0.02429 0.02989,-0.0043 0.122788,-0.0046 0.208256,-0.0036 0.09898,-0.07651 0.199721,-0.151204 0.297657,-0.228926 0.09897,-0.01958 0.19664,-0.05001 0.297137,-0.05891 0.212143,-0.01868 0.227248,0.01482 0.402045,0.02739 0.08064,0.0058 0.162118,-0.0021 0.242877,0.0016 0.08448,0.0038 0.168309,0.01114 0.252698,0.01654 0.238271,0.01336 0.469869,0.08271 0.6935,0.162263 0.04112,0.01463 0.217027,0.08104 0.276468,0.110588 0.04612,0.02291 0.09021,0.04969 0.135393,0.07441 l -0.01035,0.03152 c 0.06593,0.0077 0.131996,0.01413 0.197406,0.02532 0.03022,0.0052 0.05717,0.02207 0.08578,0.03307 -0.049,-0.07663 0.07798,0.01331 0.202571,0.114205 0.0606,0.01828 0.134665,0.04519 0.17105,0.05839 0.13271,0.05113 0.26539,0.101354 0.381371,0.180869 0.04611,-0.02841 0.09246,-0.05624 0.139009,-0.08423 0.01106,-0.0074 0.02186,-0.01511 0.03307,-0.02222 0.0091,-0.0058 0.0195,-0.0097 0.02791,-0.01654 0.0078,-0.0063 0.01304,-0.01511 0.02016,-0.02222 0.0043,-0.0042 0.0105,-0.0066 0.01394,-0.01138 0.02127,-0.02967 0.03025,-0.06703 0.05581,-0.09405 0.0089,-0.01265 0.01426,-0.02924 0.02687,-0.03824 0.113678,-0.08094 0.221797,-0.186555 0.356049,-0.130741 -0.01609,-0.107704 -0.01267,-0.154027 0.0052,-0.149344 0.03649,0.0096 0.119919,0.193767 0.167949,0.317291 0.0021,0.0029 0.0057,0.0043 0.0078,0.0072 0.01677,0.02537 0.0227,0.05526 0.02585,0.0863 -0.0046,-0.01855 -0.0181,-0.05371 -0.03359,-0.09354 -0.01183,-0.01606 -0.02734,-0.02862 -0.04238,-0.04186 0.0227,0.04911 0.03885,0.103357 0.0708,0.146246 0.0035,0.0047 0.0056,0.0058 0.0067,0.0052 0.0019,0.02276 0.0031,0.04594 0.0072,0.0677 5.29e-4,0.0024 -0.0011,0.0096 -0.0016,0.0072 -0.0021,-0.0113 5.29e-4,-0.0241 -0.0052,-0.03411 -0.0032,-0.0056 -0.0075,-0.01053 -0.01085,-0.01601 0.0048,0.02164 0.01159,0.05716 0.02016,0.106453 0.004,0.0077 0.0076,0.02569 -0.0011,-0.03514 0.0036,0.01659 0.0079,0.03312 0.01241,0.04961 0.05149,-0.05281 0.113945,-0.08062 0.176733,-0.08062 0.147646,1.3e-5 0.295098,0.145891 0.295072,0.438216 v 0.01704 c -3e-6,0.02294 -8e-6,0.04579 0,0.06873 -1.6e-5,0.02617 -2.33e-4,0.05238 0,0.07855 2.01e-4,0.02556 -0.0019,0.0483 -0.0036,0.07442 -7.94e-4,0.01249 0.0019,-0.02476 0.0031,-0.03721 7.93e-4,-0.0092 -0.0038,0.06214 -5.3e-4,0.02791 -0.0013,0.02003 -5.29e-4,0.0019 0.0016,0.03359 0.0021,0.0287 0.0046,0.06936 -5.29e-4,0.09664 -0.0029,0.0154 -0.0076,0.03039 -0.01188,0.04547 -5.29e-4,0.01352 -0.0016,0.02801 -5.29e-4,0.03514 0.0071,0.06962 0.0033,0.140198 -0.02016,0.206706 -3.1e-5,-0.006 7.94e-4,-0.02408 0,-0.0181 -0.0095,0.08144 -0.0049,0.05378 -0.01447,0.09664 0.0033,0.06654 5.29e-4,0.133567 -0.02016,0.197403 -0.0043,-0.03763 0.0024,0.0168 -0.0031,0.03772 -0.0028,0.0104 -0.0068,0.02032 -0.01035,0.03049 2.22e-4,-0.0037 2.64e-4,-0.01127 -5.29e-4,0.02635 -0.0031,0.02426 -0.0076,0.09718 -0.01035,0.07286 -5.29e-4,-0.0057 -5.29e-4,-0.02336 -0.0011,-0.01757 -0.0063,0.07891 -0.01183,0.09008 -0.01085,0.07855 v 5.29e-4 c 7.94e-4,-0.0091 0.01013,-0.05117 -0.0088,0.06408 -0.0019,0.01035 0.0052,-0.01966 0.0078,-0.03049 -1.67e-4,0.0045 -5e-5,0.009 -5.29e-4,0.01344 -0.0028,0.0274 -0.0076,0.05445 -0.01188,0.08165 -1.4e-4,0.0011 -5.29e-4,0.0016 -0.0011,0.0031 -0.0013,0.03829 -0.0035,0.07755 0.0011,0.117305 0.0019,0.03265 0.0063,0.08833 0.0031,0.120407 -0.0035,0.03541 -0.01035,0.07037 -0.01654,0.10542 -7.93e-4,0.0047 -0.0029,0.0089 -0.0047,0.01344 -0.0013,0.0011 -0.0033,0.0016 -0.0036,0.0031 -0.0034,0.01791 -0.0048,0.03619 -0.0072,0.05426 -0.0089,0.03209 -0.01746,0.0647 -0.02687,0.09663 -0.0037,0.01262 -0.01101,0.02381 -0.0155,0.03617 -0.0098,0.02672 -0.01627,0.05474 -0.02687,0.08113 -7.94e-4,-0.01188 -0.0013,-0.04749 -0.0026,-0.03566 -0.0036,0.03148 0.0024,0.06356 -0.0041,0.09457 -0.0091,0.04285 -0.02763,0.0833 -0.04237,0.12454 -7.94e-4,0.0021 -0.0038,0.0073 -0.0036,0.0052 7.94e-4,-0.0098 0.0091,-0.03814 0.0057,-0.02894 -0.0062,0.01651 -0.0093,0.03366 -0.01394,0.05064 -0.01159,0.02646 -0.02286,0.05321 -0.03462,0.07958 -0.0024,0.02817 -0.0055,0.06465 -0.0098,0.08423 -0.007,0.0318 -0.01683,0.06308 -0.02687,0.09405 -0.0032,0.0099 -0.0088,0.01934 -0.01291,0.02894 -0.01892,0.04458 -0.01627,0.03817 -0.03049,0.07648 -0.004,0.01109 -0.009,0.02215 -0.01188,0.03359 -0.0033,0.01257 -0.0047,0.02543 -0.0067,0.03824 -0.0069,0.04429 -0.01016,0.08911 -0.01757,0.133326 -0.0065,0.03874 -0.01394,0.0775 -0.02273,0.115755 -0.0046,0.02003 -0.01167,0.03922 -0.01757,0.05891 -0.168,0.559994 -0.77016,0.378294 -0.565859,-0.1695 0.01968,-0.05276 0.02617,-0.108182 0.03204,-0.163814 -0.03944,5.3e-4 -0.07889,0.0013 -0.11834,0.0021 -0.05795,0.0048 -0.116062,0.0021 -0.174149,5.29e-4 -0.254132,0.308388 -0.849611,0.216792 -1.154967,0.190685 -0.422238,-0.05076 -0.845455,-0.09614 -1.269174,-0.136943 -0.0615,0.0054 -0.123029,0.0098 -0.184484,0.01551 -0.227565,0.02122 -0.291116,0.0051 -0.455271,0.141592 -0.491747,0.271703 -0.593762,0.368167 -1.053682,-0.272336 -0.341267,-0.01056 -0.682964,-0.01347 -1.024744,-0.0041 -0.324911,0.02416 -0.754087,0.05284 -1.070219,0.09302 -0.100727,0.01281 -0.199535,0.03639 -0.299206,0.05581 -0.122878,0.02392 -0.246021,0.04778 -0.368454,0.0739 -0.04127,0.0088 -0.130728,0.06159 -0.143142,0.04754 -0.139769,0.145148 -0.30475,0.2584 -0.466122,0.160197 -0.05851,-0.03561 -0.113247,-0.0764 -0.166399,-0.119888 -0.237151,0.08671 -0.470093,0.170085 -0.738973,0.273884 -0.124273,0.04798 -0.245068,0.105571 -0.37052,0.150378 -0.07031,0.02511 -0.148297,0.02746 -0.216006,0.05891 -0.107334,0.04985 -0.187645,0.163454 -0.304374,0.182935 -0.23699,0.03954 -0.480655,-0.008 -0.720886,-0.01188 -0.03797,-0.06317 -0.0814,-0.124322 -0.125574,-0.184999 0.03074,0.355317 -0.3243,0.719042 -1.03818,0.689361 -0.0046,-1.93e-4 -0.0093,-1.72e-4 -0.01394,-5.29e-4 -0.276651,0.310997 -0.652886,0.682265 -1.046967,1.033013 -0.176599,0.386297 -0.479464,0.674412 -0.944644,0.759642 -0.774446,0.537382 -1.112356,0.697598 -1.879989,1.107427 -0.856594,0.291878 -1.665624,0.440177 -2.5585,0.287322 -0.02768,-0.0047 -0.05629,-0.01013 -0.08475,-0.01447 -0.05024,0.01775 -0.09178,0.03461 -0.144695,0.05271 -0.257215,0.08796 -0.521986,0.162325 -0.791681,0.196369 -0.835147,0.105418 -1.189516,0.05295 -1.95957,0.0021 -0.432649,-0.124617 -1.598195,-0.413034 -2.073259,-0.691949 -1.238642,-0.72721 -2.172274,-1.789163 -3.078882,-2.875275 -0.408549,0.06922 -0.770478,0.09804 -1.292945,0.147794 -0.597077,0.05254 -1.194417,0.103068 -1.791621,0.153995 -0.03906,0.0092 -0.07798,0.01998 -0.11679,0.02894 -0.651086,0.150503 -1.315643,0.177924 -1.974556,0.08578 -0.198594,-0.122352 -0.412329,-0.223415 -0.595828,-0.367419 -0.117893,-0.09251 -0.218094,-0.218324 -0.304893,-0.363802 -0.119393,-0.02199 -0.238165,-0.04723 -0.32091,-0.07648 -0.07543,-0.02667 -0.147381,-0.06175 -0.220658,-0.09405 -0.169296,0.103396 -0.388048,0.115279 -0.711067,-0.05891 -0.0098,-0.0021 -0.01971,-0.0021 -0.02946,-0.0047 -0.03757,-0.0096 -0.06218,-0.03252 -0.08165,-0.06046 -0.02529,-0.0158 -0.04948,-0.02962 -0.07596,-0.04754 -0.641633,-0.43416 -0.333055,-0.772543 -0.173117,-1.130678 -0.0094,-0.0455 -0.01524,-0.06969 -0.02894,-0.135393 -0.01032,-0.06597 -0.10169,-0.627493 -0.110588,-0.756025 -0.01061,-0.152974 -0.01315,-0.306584 -0.01291,-0.459923 1.51e-4,-0.09465 -0.0069,-0.191362 0.01394,-0.283702 0.109926,-0.487743 0.139737,-0.490297 0.347266,-0.856795 0.182461,-0.277106 0.376261,-0.553812 0.649573,-0.749826 0.120367,-0.08632 0.167238,-0.105323 0.280604,-0.158647 -0.0016,-5.29e-4 -0.003,-5.29e-4 -0.0047,-0.0011 -0.0084,-0.0027 0.04379,-0.0093 0.02532,-0.0088 -0.009,0.0043 -0.01246,0.006 -0.02066,0.0098 0.398309,0.124373 0.892534,0.08378 1.194757,0.371039 0.02445,0.02323 0.03903,0.05957 0.04961,0.100769 0.04908,-0.03283 0.09737,-0.0667 0.149862,-0.09354 0.140058,-0.07156 0.219123,-0.106082 0.300239,-0.139525 0.13884,-0.132067 0.294987,-0.26113 0.474909,-0.393259 0.129593,-0.09517 0.265779,-0.184739 0.414443,-0.24598 0.476745,-0.196398 0.616617,-0.188008 1.069186,-0.239778 0.572622,0.02781 0.938245,0.02206 1.272273,0.618051 0.03039,0.05422 0.04815,0.276415 0.0615,0.505393 -0.0011,-0.199572 -0.0026,-0.398994 0.0021,-0.598929 0.19348,-0.4306 0.260028,-0.829942 0.712619,-1.057816 0.845312,-0.425607 2.104842,-0.447506 3.030304,-0.489376 0.183473,5.29e-4 0.353814,-0.0021 0.517282,-0.0021 z m 23.771675,2.403988 c -0.01405,-0.03042 -0.0299,-0.05935 -0.05529,-0.08062 -0.02625,-0.02199 -0.05113,-0.03536 -0.07545,-0.04547 0.0016,0.01016 7.94e-4,0.01233 0.0026,0.02376 0.04151,0.03521 0.08738,0.06646 0.128156,0.10232 z M 75.389198,26.129154 c 0.02061,-0.0315 -0.0465,0.05928 -0.06976,0.08888 l 0.0057,0.0036 c 0.02085,-0.03011 0.03295,-0.04496 0.06408,-0.0925 z m -14.022401,0.150895 c -0.525415,0.02294 -0.866325,0.03048 -1.411282,0.09095 -0.04906,0.0054 -0.810866,0.138311 -0.890387,0.14211 -0.01828,7.94e-4 -0.01635,-0.04368 -0.03462,-0.04237 -0.04679,0.0034 -0.08646,0.03609 -0.129707,0.05426 -0.0069,0.252968 -0.0095,0.511588 -0.0072,0.77153 0.110032,-0.02894 0.220837,-0.0555 0.332798,-0.07545 0.08135,-0.0145 0.163963,-0.02074 0.246497,-0.02479 0.160607,-0.0079 0.305146,-0.01122 0.44855,-0.01241 0.143405,-0.0011 0.285822,-1.8e-5 0.443384,0 0.216675,0.01037 0.433512,0.01881 0.650089,0.03101 0.318696,0.01794 0.636278,0.04831 0.953431,0.08165 0.04461,0.0013 0.08923,1.27e-4 0.133843,0.0021 0.260421,0.02162 0.434583,0.0338 0.703315,0.06666 0.0031,2.65e-4 0.0062,0.0011 0.0093,0.0016 0.0021,-0.304753 0.0035,-0.609772 -0.01394,-0.914156 0.04392,0.04585 0.177202,0.128602 0.1788,0.06511 0.0013,-0.04843 -0.07462,-0.06336 -0.118338,-0.08423 -0.101055,-0.04824 -0.203149,-0.101062 -0.31316,-0.121957 -0.387134,-0.07351 -0.797468,0.04542 -1.181323,-0.03152 z m 21.087085,0.777214 c -0.134226,0.01413 -0.386395,0.229169 -0.451652,0.281635 -0.06148,0.04944 -0.101888,0.09083 -0.141594,0.131776 0.125373,0.01783 0.262718,0.03606 0.42168,0.05891 0.0038,-0.02162 0.0095,-0.0429 0.01291,-0.06459 0.0047,-0.02931 -0.02005,-0.0516 -0.04548,-0.07338 -0.01302,-0.0037 -0.02617,-0.0065 -0.03927,-0.0098 -0.02895,-0.0096 -0.06506,-0.0075 -0.08682,-0.02894 -0.01291,-0.01267 0.0364,-0.0065 0.05426,-0.0036 0.01506,0.0024 0.02657,0.01529 0.04134,0.01913 0.0033,7.94e-4 -0.0063,-0.01199 -0.0041,-0.0093 0.009,0.0114 0.0222,0.02191 0.03462,0.03255 0.0395,0.01119 0.07845,0.02358 0.118856,0.03049 0.05758,0.0099 0.116457,0.01331 0.174668,0.0186 0.0071,-0.105571 0.0087,-0.210966 -0.0057,-0.316778 -0.0072,-0.05345 -0.03898,-0.07137 -0.08371,-0.06666 z m 0.856795,0.01344 -0.0031,0.01035 c 0.02307,-0.0024 0.04618,-0.0045 0.06925,-0.0067 0.02186,-0.0028 -0.04416,-0.0024 -0.06615,-0.0036 z m -2.218986,0.03927 c -1.67e-4,0.0013 -7.94e-4,0.0033 -0.0011,0.0047 0.0038,-4.2e-5 0.0076,4.2e-5 0.01138,0 -0.0034,-0.0016 -0.0099,-0.0084 -0.01035,-0.0047 z m 1.613855,0.0217 c -0.03103,-7.94e-4 -0.058,0.0034 -0.04031,0.0057 0.02096,0.0026 0.04201,0.0038 0.06305,0.0057 0.01,5.29e-4 0.01987,0.0016 0.02997,0.0016 -0.01199,-0.0078 -0.03099,-0.01244 -0.05271,-0.01291 z m 0.923457,0.07545 c 0.02138,0.0047 0.04398,0.0089 0.06305,0.01344 0.01916,0.0021 0.03821,0.005 0.05736,0.0072 -0.04005,-0.0071 -0.08029,-0.01397 -0.120406,-0.02066 z m 0.125573,0.0217 -0.0021,0.0062 c 0.04388,0.01072 0.06543,0.01508 0.0057,-0.0057 -0.0013,-2.09e-4 -0.0024,-2.25e-4 -0.0036,-5.29e-4 z m 1.383896,0.254764 c -0.0076,0.01328 -0.0296,0.08675 -0.02945,0.09405 0.0034,0.0059 0.0073,0.0118 0.01035,0.01757 0.0057,-0.02103 0.01175,-0.04567 0.02016,-0.0987 0.0024,-0.01468 0.0016,-0.01741 -0.0011,-0.01291 z m 1.012343,0.939993 c -0.004,0.01371 -0.0075,0.02748 -0.01085,0.04134 -0.0021,0.0089 0.0059,-0.01725 0.0088,-0.02585 0.0021,-0.01781 0.0011,-0.0061 0.0021,-0.0155 z m -2.319239,0.286806 c -0.02011,0.01662 -0.03082,0.02511 -0.04599,0.03772 -1.1e-5,2.65e-4 1.1e-5,7.94e-4 0,0.0011 0.01476,-0.01215 0.02909,-0.0236 0.04599,-0.03876 z m 2.253093,0.286803 c -0.01492,0.04182 -0.03362,0.08222 -0.04289,0.125574 -0.0062,0.02909 0.02912,-0.05213 0.03772,-0.08062 0.0028,-0.0092 0.004,-0.02892 0.0052,-0.04496 z m -32.201135,0.454237 c -0.0019,0.0055 -0.0038,0.01103 -0.0057,0.01654 0.0032,-0.0032 0.0074,-0.0053 0.01035,-0.0088 0.0019,-0.0024 -0.0024,-0.0042 -0.0047,-0.0078 z m 31.975824,0.719852 c -0.0016,0.006 -0.0011,0.01241 -0.0016,0.0186 0.0011,-0.0045 0.0016,-0.0055 0.0016,-0.0083 -3e-6,-0.0035 7.94e-4,-0.01371 0,-0.01035 z M 77.892402,30.6405 c -0.0024,0.0011 -0.0033,0.0016 -0.0057,0.0026 -0.193548,-0.0099 -0.05649,0.05996 -0.04341,0.04392 0.01291,-0.01582 0.03167,-0.03119 0.04909,-0.04651 z m -16.158186,0.125058 c -0.32208,0.199009 -0.661305,0.370621 -1.002006,0.535885 -0.06753,0.03276 -0.137118,0.06196 -0.205672,0.09302 0.645576,0.764899 1.357948,1.535234 2.183845,2.038635 0.325535,0.198417 1.375719,0.505103 1.662948,0.596863 0.569111,0.04372 0.955752,0.09356 1.551845,0.03152 0.06155,-0.0064 0.12214,-0.02077 0.182933,-0.03256 -0.02249,-0.06205 -0.04075,-0.113012 -0.06976,-0.189135 -0.11131,-0.188875 -0.218979,-0.379632 -0.33383,-0.566375 -0.09936,-0.161557 -0.21191,-0.315296 -0.308507,-0.478523 -0.332618,-0.562028 -0.63092,-1.140698 -0.919842,-1.724443 -0.03087,0.0024 -0.06162,0.0053 -0.0925,0.0078 -0.171413,0.01289 -0.344022,0.02154 -0.515731,0.01344 -0.578242,-0.02724 -0.847701,-0.07949 -1.380792,-0.160713 -0.250925,-0.05507 -0.502393,-0.10841 -0.752927,-0.165365 z m 4.212145,0.02635 c -0.03468,0.01045 -0.0683,0.01955 -0.103351,0.02997 0.214376,0.422653 0.435094,0.841928 0.67696,1.250569 0.109633,0.185227 0.239681,0.35833 0.3483,0.544152 0.153609,0.262792 0.291687,0.533903 0.4377,0.800984 0.01281,0.06277 0.04914,0.125407 0.03876,0.188619 -0.0013,0.0085 -0.0079,0.01537 -0.01344,0.02273 0.530582,-0.241568 0.845912,-0.532715 1.41025,-1.141532 0.118443,-0.283046 0.246182,-0.582472 0.365353,-0.885735 -0.492797,0.039 -0.728438,-0.006 -1.26659,-0.07648 -0.03584,-0.01169 -0.07297,-0.0236 -0.109037,-0.03514 -0.09196,0.06869 -0.185002,0.136017 -0.275437,0.206706 -0.131056,0.07874 -0.536993,0.354071 -0.671277,0.227894 -0.295405,-0.277585 -0.475424,-0.656747 -0.644403,-1.030431 -0.06102,-0.03146 -0.124831,-0.06475 -0.193789,-0.102317 z m 4.792475,1.540989 c -0.154998,0.09884 -0.317032,0.154871 -0.523483,0.08785 -0.07356,0.178091 -0.151326,0.36314 -0.238745,0.577225 -0.126521,0.156531 -0.242861,0.298427 -0.352951,0.42943 0.380836,-0.20143 0.716761,-0.388051 1.185974,-0.705382 -0.02384,-0.126254 -0.04503,-0.247433 -0.07079,-0.389125 z m 0.280601,0.210854 c -0.01521,-0.0021 -0.02865,0.02805 -0.04237,0.06046 0.01868,-0.01331 0.0402,-0.03039 0.05943,-0.04444 -0.0057,-0.0069 -0.01154,-0.01527 -0.01707,-0.01603 z"
         fill="#ff0000"
         stroke-width="0.264583"
         id="path2077" />
    </clipPath>
    <clipPath
       clipPathUnits="userSpaceOnUse"
       id="c">
      <path
         d="m 18.990572,14.458549 v 48.104556 h 17.078545 c -0.02902,-0.06308 -0.05771,-0.126172 -0.08578,-0.189651 -0.211693,0.01609 -0.420026,0.0054 -0.612365,-0.07338 -0.517649,-0.21205 -0.521975,-0.700468 -0.550354,-1.110009 -0.0013,-0.02008 0.0052,0.03998 0.0078,0.05994 0.07324,0.09535 0.0072,0.01614 -0.03928,-0.212389 -0.06981,-0.343151 -0.08906,-0.640747 -0.122473,-0.986504 -0.0088,-0.09103 -0.01818,-0.181851 -0.02739,-0.272852 -0.0096,-0.149913 -0.02244,-0.299508 -0.02894,-0.449582 -0.0047,-0.10753 -0.0083,-0.839494 -0.0083,-0.841293 -2.64e-4,-0.311936 0.0052,-0.662332 0.01757,-0.969452 0.0029,-0.07245 0.01093,-0.144232 0.01654,-0.216522 0.0086,-0.01365 0.02564,-0.02521 0.02585,-0.04134 0.0011,-0.08287 -0.10124,-0.222531 -0.02222,-0.247531 0.237702,-0.0752 0.441576,-0.145854 0.629417,-0.213423 0.0013,-0.02222 0.0027,-0.04445 0.0041,-0.06666 -0.01233,-0.586505 -0.01879,-1.17338 -0.02429,-1.760101 0.0024,-0.281829 5.29e-4,-0.563669 0.0072,-0.845426 0.01405,-0.584139 0.07757,-1.166397 0.0956,-1.750282 -0.0016,-0.04961 -0.0065,-0.09916 -0.0067,-0.148828 -5.3e-4,-0.108805 0.003,-0.217281 0.0047,-0.326078 0.0038,-0.09376 0.0064,-0.158718 0.0093,-0.22841 -0.0033,-0.02119 -0.01249,-0.04882 0.0021,-0.05219 0.02305,-0.475912 0.108154,-0.35722 0.898136,-0.172085 0.221539,-0.242139 0.419219,-0.471538 0.766879,-0.503328 0.123965,-0.01132 0.26688,0.0024 0.437182,0.04909 0.355878,0.09758 0.544949,0.48783 0.818555,0.743624 -0.04744,-0.100375 -0.09322,-0.201538 -0.129191,-0.306443 -0.03788,-0.11045 0.300172,0.446249 0.216006,0.382405 -0.03041,-0.02307 -0.05851,-0.0495 -0.08682,-0.07596 0.05418,0.114623 0.110905,0.228111 0.162779,0.343646 v 5.3e-4 c 0.04622,-0.02265 0.09476,-0.03965 0.149347,-0.04186 0.528399,-0.02143 0.982228,0.382995 1.469678,0.595831 V 14.458549 Z m 16.401582,45.871102 c -0.01767,0.0013 -0.03433,0.0072 -0.05013,0.01551 0.02008,0.01061 0.04105,0.02405 0.06201,0.03721 -0.0045,-0.01976 -0.008,-0.03541 -0.01188,-0.05271 z m -0.492475,0.76481 c -0.0068,0.101965 0.07404,0.459626 0.06098,0.352952 -0.03588,-0.292957 -0.05228,-0.343511 -0.06098,-0.352952 z m 5.164027,0.51108 c -0.03699,0.109672 -0.07616,0.226269 -0.105939,0.314711 -0.07228,0.22012 -0.160169,0.437785 -0.270267,0.642853 h 0.376206 z"
         fill="#ff0000"
         stroke-width="0.264583"
         id="path2083" />
    </clipPath>
    <clipPath
       clipPathUnits="userSpaceOnUse"
       id="d">
      <path
         d="m 18.990572,14.458549 v 48.104556 h 17.078545 c -0.02902,-0.06308 -0.05771,-0.126172 -0.08578,-0.189651 -0.211693,0.01609 -0.420026,0.0054 -0.612365,-0.07338 -0.517649,-0.21205 -0.521975,-0.700468 -0.550354,-1.110009 -0.0013,-0.02008 0.0052,0.03998 0.0078,0.05994 0.07324,0.09535 0.0072,0.01614 -0.03928,-0.212389 -0.06981,-0.343151 -0.08906,-0.640747 -0.122473,-0.986504 -0.0088,-0.09103 -0.01818,-0.181851 -0.02739,-0.272852 -0.0096,-0.149913 -0.02244,-0.299508 -0.02894,-0.449582 -0.0047,-0.10753 -0.0083,-0.839494 -0.0083,-0.841293 -2.64e-4,-0.311936 0.0052,-0.662332 0.01757,-0.969452 0.0029,-0.07245 0.01093,-0.144232 0.01654,-0.216522 0.0086,-0.01365 0.02564,-0.02521 0.02585,-0.04134 0.0011,-0.08287 -0.10124,-0.222531 -0.02222,-0.247531 0.237702,-0.0752 0.441576,-0.145854 0.629417,-0.213423 0.0013,-0.02222 0.0027,-0.04445 0.0041,-0.06666 -0.01233,-0.586505 -0.01879,-1.17338 -0.02429,-1.760101 0.0024,-0.281829 5.29e-4,-0.563669 0.0072,-0.845426 0.01405,-0.584139 0.07757,-1.166397 0.0956,-1.750282 -0.0016,-0.04961 -0.0065,-0.09916 -0.0067,-0.148828 -5.3e-4,-0.108805 0.003,-0.217281 0.0047,-0.326078 0.0038,-0.09376 0.0064,-0.158718 0.0093,-0.22841 -0.0033,-0.02119 -0.01249,-0.04882 0.0021,-0.05219 0.02305,-0.475912 0.108154,-0.35722 0.898136,-0.172085 0.221539,-0.242139 0.419219,-0.471538 0.766879,-0.503328 0.123965,-0.01132 0.26688,0.0024 0.437182,0.04909 0.355878,0.09758 0.544949,0.48783 0.818555,0.743624 -0.04744,-0.100375 -0.09322,-0.201538 -0.129191,-0.306443 -0.03788,-0.11045 0.300172,0.446249 0.216006,0.382405 -0.03041,-0.02307 -0.05851,-0.0495 -0.08682,-0.07596 0.05418,0.114623 0.110905,0.228111 0.162779,0.343646 v 5.3e-4 c 0.04622,-0.02265 0.09476,-0.03965 0.149347,-0.04186 0.528399,-0.02143 0.982228,0.382995 1.469678,0.595831 V 14.458549 Z m 16.401582,45.871102 c -0.01767,0.0013 -0.03433,0.0072 -0.05013,0.01551 0.02008,0.01061 0.04105,0.02405 0.06201,0.03721 -0.0045,-0.01976 -0.008,-0.03541 -0.01188,-0.05271 z m -0.492475,0.76481 c -0.0068,0.101965 0.07404,0.459626 0.06098,0.352952 -0.03588,-0.292957 -0.05228,-0.343511 -0.06098,-0.352952 z m 5.164027,0.51108 c -0.03699,0.109672 -0.07616,0.226269 -0.105939,0.314711 -0.07228,0.22012 -0.160169,0.437785 -0.270267,0.642853 h 0.376206 z"
         fill="#ff0000"
         stroke-width="0.264583"
         id="path2086" />
    </clipPath>
  </defs>
  <sodipodi:namedview
     id="base"
     pagecolor="#a9714b"
     bordercolor="#666666"
     borderopacity="1.0"
     inkscape:pageopacity="0"
     inkscape:pageshadow="2"
     inkscape:zoom="0.175"
     inkscape:cx="236.34979"
     inkscape:cy="1005.1828"
     inkscape:document-units="mm"
     inkscape:current-layer="g2119"
     inkscape:document-rotation="0"
     showgrid="false"
     units="px"
     inkscape:window-width="1920"
     inkscape:window-height="1017"
     inkscape:window-x="-8"
     inkscape:window-y="-8"
     inkscape:window-maximized="1" />
  <metadata
     id="metadata2072">
    <rdf:RDF>
      <cc:Work
         rdf:about="">
        <dc:format>image/svg+xml</dc:format>
        <dc:type
           rdf:resource="http://purl.org/dc/dcmitype/StillImage" />
        <dc:title></dc:title>
      </cc:Work>
    </rdf:RDF>
  </metadata>
  <g
     inkscape:label="Réteg 1"
     inkscape:groupmode="layer"
     id="layer1">
    <g
       transform="matrix(4.4192078,0,0,4.5590395,-28.394177,-5.6324165)"
       id="g2119">
      <g
         fill="none"
         stroke="#000000"
         stroke-width="2.5"
         id="g2093"
         style="stroke:#ffffff">
        <path
           d="M 56.957508,62.607885 V 50.313489 m 5.387915,12.294396 V 50.313489 m 5.387909,12.294396 V 50.313489 M 73.12125,62.607885 V 50.313489 m 5.387909,12.294396 V 50.313489"
           id="path2091"
           style="stroke:#ffffff" />
      </g>
      <g
         fill="none"
         stroke="#000000"
         stroke-width="2.5"
         id="g2103">
        <rect
           width="66.41571"
           height="77.277473"
           x="34.525478"
           y="28.96096"
           rx="18.605782"
           ry="18.605782"
           clip-path="url(#a)"
           id="rect2095"
           style="stroke:#ffffff" />
        <rect
           width="39.555889"
           height="43.56493"
           x="47.955387"
           y="19.644312"
           rx="9"
           ry="9"
           clip-path="url(#b)"
           id="rect2097"
           style="stroke:#ffffff" />
        <path
           d="m 34.660416,53.710416 c 0,0 -7.14375,1.5875 -7.276041,-3.96875 C 27.252083,44.185416 26.9875,18.420641 26.9875,18.420641 c 0,0 -0.748355,-2.358552 -2.958566,-2.584389 -2.109812,-0.215577 -3.788309,-0.09354 -3.788309,-0.09354 v 36.473752 c 0,0 3.96875,10.754372 13.890624,8.042394 10.26135,-2.804768 1.719792,-6.68073 1.719792,-6.68073 z"
           clip-path="url(#c)"
           transform="matrix(-1,0,0,1,135.64616,-1.588e-5)"
           id="path2099"
           style="stroke:#ffffff" />
        <path
           d="m 34.660416,53.710416 c 0,0 -7.14375,1.5875 -7.276041,-3.96875 C 27.252083,44.185416 26.9875,18.420641 26.9875,18.420641 c 0,0 -0.748355,-2.358552 -2.958566,-2.584389 -2.109812,-0.215577 -3.788309,-0.09354 -3.788309,-0.09354 v 36.473752 c 0,0 3.96875,10.754372 13.890624,8.042394 10.26135,-2.804768 1.719792,-6.68073 1.719792,-6.68073 z"
           clip-path="url(#d)"
           transform="translate(-0.17949167,0.0071283)"
           id="path2101"
           style="stroke:#ffffff" />
      </g>
      <g
         transform="translate(-3.6199058)"
         fill="none"
         stroke="#000000"
         stroke-width="2.98805"
         id="g2109"
         style="stroke:#ffffff">
        <ellipse
           cx="54.094311"
           cy="74.255424"
           rx="0.43647736"
           ry="2.7493975"
           id="ellipse2105"
           style="stroke:#ffffff" />
        <ellipse
           cx="88.612167"
           cy="74.255081"
           rx="0.43647736"
           ry="2.7493975"
           id="ellipse2107"
           style="stroke:#ffffff" />
      </g>
      <rect
         width="24.390629"
         height="14.284386"
         x="55.538021"
         y="84.509895"
         rx="4.9561863"
         ry="5.951827"
         fill="none"
         stroke="#000000"
         stroke-width="2.71561"
         id="rect2111"
         style="stroke:#ffffff" />
      <g
         transform="translate(1.221935)"
         id="g2117"
         style="fill:#ffffff">
        <circle
           cx="71.367027"
           cy="89.197807"
           r="1.5"
           id="circle2113"
           style="fill:#ffffff" />
        <circle
           cx="61.655769"
           cy="89.197998"
           r="1.5"
           id="circle2115"
           style="fill:#ffffff" />
      </g>
    </g>
  </g>
</svg>
