<svg xmlns="http://www.w3.org/2000/svg" width="512" height="512" viewBox="0 0 135.46666 135.46667"><defs><clipPath clipPathUnits="userSpaceOnUse" id="b"><path d="M46.70516 18.394226v46.064889h42.056346V18.394226zm15.11949 6.548437v.000529c.490403.000371.917268.02316 1.438672.215491.132805.04899.273034.09997.376203.196887.444471.417537.389851.480126.492477.984436.0057.08988.0063.179821.0093.269753.04153-.03766.07868-.07091.128156-.11679.441325-.205768.797438-.414927 1.270725-.508497.604763-.119526.791414-.10154 1.347203-.12609.617262-.02726.886452-.04271 1.468646-.0739.341784.02786.948219.02727 1.392679.208255.113512-.21639.283303-.395961.554488-.432531.199173-.02686.401722.05703.588079.132292.177702.07176.560993.701974.593243.748274.0021.0032.0046.0062.0067.0093.157726.04331.312158.0926.430983.198954.05348.04787.08633.09561.110588.143661.488804-.397972.661749-.529908.826307-.383439.06084-.02518.12098-.04957.190685-.08268.01603-.0076.03549-.0011.05323-.0016.105191-.0028.0643-.0019.179319-.0016.218091.10294.420386.249499.654222.308509.104664.02641-.150495-.125664-.247528-.199471-.08738-.03184-.179589-.05054-.265618-.0863-.08079-.03358.167444.05051.251147.07596.0031.0025.01087.0076.01447.01034.01635.006.03379.0092.04961.01654.157652.07305.23587.178427.351914.300241.05241.07995.109733.157027.157615.239778.02729.04716.07382.156673.116271.260448.09119-.109953.211746-.24597.456819-.511079.240064-.259686.315553-.311165.367938-.35295.01556-.03433.01021-.0237.02739-.06149.03572-.07865.05351-.237673.137977-.219625.437502.0935.826434.342862 1.239716.514182-.126987.285797-.13584.343363-.270783.504878-.03318.09515-.06552.190777-.09767.286287-.0097.02866-.02159.05624-.03152.08475.07166.000262.14333-.000193.214974 0 .312727.000529.625713.000794.938442.000529.0019-.000003.0034-.000008.0052 0 .05231-.0048.09886-.0081.152963-.01034.102836-.04223.240639-.08081.254765-.08423.44138-.106103.562946-.116475.969449-.175702.262083-.01648.523716-.01418.784966-.0052.140578-.02003.28167-.03758.422711-.05374.295807-.03392.597027-.0414.896586-.04599.04145-.0085.08267-.01828.124542-.02429.02989-.0043.122788-.0046.208256-.0036.09898-.07651.199721-.151204.297657-.228926.09897-.01958.19664-.05001.297137-.05891.212143-.01868.227248.01482.402045.02739.08064.0058.162118-.0021.242877.0016.08448.0038.168309.01114.252698.01654.238271.01336.469869.08271.6935.162263.04112.01463.217027.08104.276468.110588.04612.02291.09021.04969.135393.07441l-.01035.03152c.06593.0077.131996.01413.197406.02532.03022.0052.05717.02207.08578.03307-.049-.07663.07798.01331.202571.114205.0606.01828.134665.04519.17105.05839.13271.05113.26539.101354.381371.180869.04611-.02841.09246-.05624.139009-.08423.01106-.0074.02186-.01511.03307-.02222.0091-.0058.0195-.0097.02791-.01654.0078-.0063.01304-.01511.02016-.02222.0043-.0042.0105-.0066.01394-.01138.02127-.02967.03025-.06703.05581-.09405.0089-.01265.01426-.02924.02687-.03824.113678-.08094.221797-.186555.356049-.130741-.01609-.107704-.01267-.154027.0052-.149344.03649.0096.119919.193767.167949.317291.0021.0029.0057.0043.0078.0072.01677.02537.0227.05526.02585.0863-.0046-.01855-.0181-.05371-.03359-.09354-.01183-.01606-.02734-.02862-.04238-.04186.0227.04911.03885.103357.0708.146246.0035.0047.0056.0058.0067.0052.0019.02276.0031.04594.0072.0677.000529.0024-.0011.0096-.0016.0072-.0021-.0113.000529-.0241-.0052-.03411-.0032-.0056-.0075-.01053-.01085-.01601.0048.02164.01159.05716.02016.106453.004.0077.0076.02569-.0011-.03514.0036.01659.0079.03312.01241.04961.05149-.05281.113945-.08062.176733-.08062.147646.000013.295098.145891.295072.438216v.01704c-.000003.02294-.000008.04579 0 .06873-.000016.02617-.000233.05238 0 .07855.000201.02556-.0019.0483-.0036.07442-.000794.01249.0019-.02476.0031-.03721.000793-.0092-.0038.06214-.00053.02791-.0013.02003-.000529.0019.0016.03359.0021.0287.0046.06936-.000529.09664-.0029.0154-.0076.03039-.01188.04547-.000529.01352-.0016.02801-.000529.03514.0071.06962.0033.140198-.02016.206706-.000031-.006.000794-.02408 0-.0181-.0095.08144-.0049.05378-.01447.09664.0033.06654.000529.133567-.02016.197403-.0043-.03763.0024.0168-.0031.03772-.0028.0104-.0068.02032-.01035.03049.000222-.0037.000264-.01127-.000529.02635-.0031.02426-.0076.09718-.01035.07286-.000529-.0057-.000529-.02336-.0011-.01757-.0063.07891-.01183.09008-.01085.07855v.000529c.000794-.0091.01013-.05117-.0088.06408-.0019.01035.0052-.01966.0078-.03049-.000167.0045-.00005.009-.000529.01344-.0028.0274-.0076.05445-.01188.08165-.00014.0011-.000529.0016-.0011.0031-.0013.03829-.0035.07755.0011.117305.0019.03265.0063.08833.0031.120407-.0035.03541-.01035.07037-.01654.10542-.000793.0047-.0029.0089-.0047.01344-.0013.0011-.0033.0016-.0036.0031-.0034.01791-.0048.03619-.0072.05426-.0089.03209-.01746.0647-.02687.09663-.0037.01262-.01101.02381-.0155.03617-.0098.02672-.01627.05474-.02687.08113-.000794-.01188-.0013-.04749-.0026-.03566-.0036.03148.0024.06356-.0041.09457-.0091.04285-.02763.0833-.04237.12454-.000794.0021-.0038.0073-.0036.0052.000794-.0098.0091-.03814.0057-.02894-.0062.01651-.0093.03366-.01394.05064-.01159.02646-.02286.05321-.03462.07958-.0024.02817-.0055.06465-.0098.08423-.007.0318-.01683.06308-.02687.09405-.0032.0099-.0088.01934-.01291.02894-.01892.04458-.01627.03817-.03049.07648-.004.01109-.009.02215-.01188.03359-.0033.01257-.0047.02543-.0067.03824-.0069.04429-.01016.08911-.01757.133326-.0065.03874-.01394.0775-.02273.115755-.0046.02003-.01167.03922-.01757.05891-.168.559994-.77016.378294-.565859-.1695.01968-.05276.02617-.108182.03204-.163814-.03944.00053-.07889.0013-.11834.0021-.05795.0048-.116062.0021-.174149.000529-.254132.308388-.849611.216792-1.154967.190685-.422238-.05076-.845455-.09614-1.269174-.136943-.0615.0054-.123029.0098-.184484.01551-.227565.02122-.291116.0051-.455271.141592-.491747.271703-.593762.368167-1.053682-.272336-.341267-.01056-.682964-.01347-1.024744-.0041-.324911.02416-.754087.05284-1.070219.09302-.100727.01281-.199535.03639-.299206.05581-.122878.02392-.246021.04778-.368454.0739-.04127.0088-.130728.06159-.143142.04754-.139769.145148-.30475.2584-.466122.160197-.05851-.03561-.113247-.0764-.166399-.119888-.237151.08671-.470093.170085-.738973.273884-.124273.04798-.245068.105571-.37052.150378-.07031.02511-.148297.02746-.216006.05891-.107334.04985-.187645.163454-.304374.182935-.23699.03954-.480655-.008-.720886-.01188-.03797-.06317-.0814-.124322-.125574-.184999.03074.355317-.3243.719042-1.03818.689361-.0046-.000193-.0093-.000172-.01394-.000529-.276651.310997-.652886.682265-1.046967 1.033013-.176599.386297-.479464.674412-.944644.759642-.774446.537382-1.112356.697598-1.879989 1.107427-.856594.291878-1.665624.440177-2.5585.287322-.02768-.0047-.05629-.01013-.08475-.01447-.05024.01775-.09178.03461-.144695.05271-.257215.08796-.521986.162325-.791681.196369-.835147.105418-1.189516.05295-1.95957.0021-.432649-.124617-1.598195-.413034-2.073259-.691949-1.238642-.72721-2.172274-1.789163-3.078882-2.875275-.408549.06922-.770478.09804-1.292945.147794-.597077.05254-1.194417.103068-1.791621.153995-.03906.0092-.07798.01998-.11679.02894-.651086.150503-1.315643.177924-1.974556.08578-.198594-.122352-.412329-.223415-.595828-.367419-.117893-.09251-.218094-.218324-.304893-.363802-.119393-.02199-.238165-.04723-.32091-.07648-.07543-.02667-.147381-.06175-.220658-.09405-.169296.103396-.388048.115279-.711067-.05891-.0098-.0021-.01971-.0021-.02946-.0047-.03757-.0096-.06218-.03252-.08165-.06046-.02529-.0158-.04948-.02962-.07596-.04754-.641633-.43416-.333055-.772543-.173117-1.130678-.0094-.0455-.01524-.06969-.02894-.135393-.01032-.06597-.10169-.627493-.110588-.756025-.01061-.152974-.01315-.306584-.01291-.459923.000151-.09465-.0069-.191362.01394-.283702.109926-.487743.139737-.490297.347266-.856795.182461-.277106.376261-.553812.649573-.749826.120367-.08632.167238-.105323.280604-.158647-.0016-.000529-.003-.000529-.0047-.0011-.0084-.0027.04379-.0093.02532-.0088-.009.0043-.01246.006-.02066.0098.398309.124373.892534.08378 1.194757.371039.02445.02323.03903.05957.04961.100769.04908-.03283.09737-.0667.149862-.09354.140058-.07156.219123-.106082.300239-.139525.13884-.132067.294987-.26113.474909-.393259.129593-.09517.265779-.184739.414443-.24598.476745-.196398.616617-.188008 1.069186-.239778.572622.02781.938245.02206 1.272273.618051.03039.05422.04815.276415.0615.505393-.0011-.199572-.0026-.398994.0021-.598929.19348-.4306.260028-.829942.712619-1.057816.845312-.425607 2.104842-.447506 3.030304-.489376.183473.000529.353814-.0021.517282-.0021zm23.771675 2.403988c-.01405-.03042-.0299-.05935-.05529-.08062-.02625-.02199-.05113-.03536-.07545-.04547.0016.01016.000794.01233.0026.02376.04151.03521.08738.06646.128156.10232zm-10.207127-1.217497c.02061-.0315-.0465.05928-.06976.08888l.0057.0036c.02085-.03011.03295-.04496.06408-.0925zm-14.022401.150895c-.525415.02294-.866325.03048-1.411282.09095-.04906.0054-.810866.138311-.890387.14211-.01828.000794-.01635-.04368-.03462-.04237-.04679.0034-.08646.03609-.129707.05426-.0069.252968-.0095.511588-.0072.77153.110032-.02894.220837-.0555.332798-.07545.08135-.0145.163963-.02074.246497-.02479.160607-.0079.305146-.01122.44855-.01241.143405-.0011.285822-.000018.443384 0 .216675.01037.433512.01881.650089.03101.318696.01794.636278.04831.953431.08165.04461.0013.08923.000127.133843.0021.260421.02162.434583.0338.703315.06666.0031.000265.0062.0011.0093.0016.0021-.304753.0035-.609772-.01394-.914156.04392.04585.177202.128602.1788.06511.0013-.04843-.07462-.06336-.118338-.08423-.101055-.04824-.203149-.101062-.31316-.121957-.387134-.07351-.797468.04542-1.181323-.03152zm21.087085.777214c-.134226.01413-.386395.229169-.451652.281635-.06148.04944-.101888.09083-.141594.131776.125373.01783.262718.03606.42168.05891.0038-.02162.0095-.0429.01291-.06459.0047-.02931-.02005-.0516-.04548-.07338-.01302-.0037-.02617-.0065-.03927-.0098-.02895-.0096-.06506-.0075-.08682-.02894-.01291-.01267.0364-.0065.05426-.0036.01506.0024.02657.01529.04134.01913.0033.000794-.0063-.01199-.0041-.0093.009.0114.0222.02191.03462.03255.0395.01119.07845.02358.118856.03049.05758.0099.116457.01331.174668.0186.0071-.105571.0087-.210966-.0057-.316778-.0072-.05345-.03898-.07137-.08371-.06666zm.856795.01344l-.0031.01035c.02307-.0024.04618-.0045.06925-.0067.02186-.0028-.04416-.0024-.06615-.0036zm-2.218986.03927c-.000167.0013-.000794.0033-.0011.0047.0038-.000042.0076.000042.01138 0-.0034-.0016-.0099-.0084-.01035-.0047zm1.613855.0217c-.03103-.000794-.058.0034-.04031.0057.02096.0026.04201.0038.06305.0057.01.000529.01987.0016.02997.0016-.01199-.0078-.03099-.01244-.05271-.01291zm.923457.07545c.02138.0047.04398.0089.06305.01344.01916.0021.03821.005.05736.0072-.04005-.0071-.08029-.01397-.120406-.02066zm.125573.0217l-.0021.0062c.04388.01072.06543.01508.0057-.0057-.0013-.000209-.0024-.000225-.0036-.000529zm1.383896.254764c-.0076.01328-.0296.08675-.02945.09405.0034.0059.0073.0118.01035.01757.0057-.02103.01175-.04567.02016-.0987.0024-.01468.0016-.01741-.0011-.01291zm1.012343.939993c-.004.01371-.0075.02748-.01085.04134-.0021.0089.0059-.01725.0088-.02585.0021-.01781.0011-.0061.0021-.0155zm-2.319239.286806c-.02011.01662-.03082.02511-.04599.03772-.000011.000265.000011.000794 0 .0011.01476-.01215.02909-.0236.04599-.03876zm2.253093.286803c-.01492.04182-.03362.08222-.04289.125574-.0062.02909.02912-.05213.03772-.08062.0028-.0092.004-.02892.0052-.04496zm-32.201135.454237c-.0019.0055-.0038.01103-.0057.01654.0032-.0032.0074-.0053.01035-.0088.0019-.0024-.0024-.0042-.0047-.0078zm31.975824.719852c-.0016.006-.0011.01241-.0016.0186.0011-.0045.0016-.0055.0016-.0083-.000003-.0035.000794-.01371 0-.01035zm-7.966956.469222c-.0024.0011-.0033.0016-.0057.0026-.193548-.0099-.05649.05996-.04341.04392.01291-.01582.03167-.03119.04909-.04651zm-16.158186.125058c-.32208.199009-.661305.370621-1.002006.535885-.06753.03276-.137118.06196-.205672.09302.645576.764899 1.357948 1.535234 2.183845 2.038635.325535.198417 1.375719.505103 1.662948.596863.569111.04372.955752.09356 1.551845.03152.06155-.0064.12214-.02077.182933-.03256-.02249-.06205-.04075-.113012-.06976-.189135-.11131-.188875-.218979-.379632-.33383-.566375-.09936-.161557-.21191-.315296-.308507-.478523-.332618-.562028-.63092-1.140698-.919842-1.724443-.03087.0024-.06162.0053-.0925.0078-.171413.01289-.344022.02154-.515731.01344-.578242-.02724-.847701-.07949-1.380792-.160713-.250925-.05507-.502393-.10841-.752927-.165365zm4.212145.02635c-.03468.01045-.0683.01955-.103351.02997.214376.422653.435094.841928.67696 1.250569.109633.185227.239681.35833.3483.544152.153609.262792.291687.533903.4377.800984.01281.06277.04914.125407.03876.188619-.0013.0085-.0079.01537-.01344.02273.530582-.241568.845912-.532715 1.41025-1.141532.118443-.283046.246182-.582472.365353-.885735-.492797.039-.728438-.006-1.26659-.07648-.03584-.01169-.07297-.0236-.109037-.03514-.09196.06869-.185002.136017-.275437.206706-.131056.07874-.536993.354071-.671277.227894-.295405-.277585-.475424-.656747-.644403-1.030431-.06102-.03146-.124831-.06475-.193789-.102317zm4.792475 1.540989c-.154998.09884-.317032.154871-.523483.08785-.07356.178091-.151326.36314-.238745.577225-.126521.156531-.242861.298427-.352951.42943.380836-.20143.716761-.388051 1.185974-.705382-.02384-.126254-.04503-.247433-.07079-.389125zm.280601.210854c-.01521-.0021-.02865.02805-.04237.06046.01868-.01331.0402-.03039.05943-.04444-.0057-.0069-.01154-.01527-.01707-.01603z" fill="red" stroke-width=".264583"/></clipPath><clipPath clipPathUnits="userSpaceOnUse" id="a"><path d="M33.275487 27.710971v79.777559h68.915693V27.710971H86.770414c-.0044.08821-.0082.17638-.01188.264584-.02151.484357-.04295.968856-.06615 1.453139-.01474.307829-.02962.531847-.03462.848527-.0016.09611.0027.192235.0041.288356.0076.404738.02647.810588.01498 1.21543-.0024.0847-.01119.16932-.0186.25373-.03363.383677-.02672.311073-.07131.623218-.23386 1.637024-1.887503 1.400865-1.653646-.236162.04186-.293023.03437-.214006.06201-.545703.006-.07132.01341-.142391.01497-.21394.0054-.235505-.0045-.390046-.0098-.618566-.0034-.148799-.006-.297157-.0088-.445969-.000265-.02082-.000529-.04169-.0011-.06253-.03909.000529-.07818.0016-.117305.000529-.254133.308386-.849614.216792-1.154967.190686-.422238-.05077-.845455-.09614-1.269175-.136943-.0615.0054-.123036.0098-.184483.0155-.227576.02122-.291116.0051-.455271.141592-.491747.271703-.593763.36817-1.053682-.272336-.341268-.01056-.682964-.01355-1.024745-.0041-.324911.02416-.754086.05284-1.070218.09302-.100727.01281-.199536.03639-.299207.05581-.122878.02392-.246018.04778-.368453.0739-.04127.0088-.130728.06159-.143143.04754-.139768.145148-.304749.2584-.466121.160198-.05851-.03561-.113245-.0764-.1664-.119888-.237151.08671-.470093.170087-.738973.273883-.124272.04798-.245065.105569-.37052.150379-.07031.02511-.148296.02746-.216006.05891-.107333.04985-.187647.163454-.304374.182935-.23699.03954-.480655-.008-.720886-.01188-.03797-.06317-.0814-.124323-.125574-.185.03074.355317-.3243.719043-1.03818.689362-.0046-.000194-.0093-.000133-.01394-.00053-.276651.310997-.652886.682266-1.046967 1.033013-.176596.386297-.479465.674412-.944645.759643-.774446.537382-1.112356.697597-1.879989 1.107426-.856591.291878-1.665623.44018-2.558499.287322-.02768-.0047-.05629-.01013-.08475-.01447-.05024.01775-.09178.03461-.144695.05271-.257212.08796-.521986.162324-.791681.196368-.835147.105418-1.189517.05286-1.959571.0021-.432652-.124616-1.598194-.413036-2.073259-.691949-1.238641-.72721-2.172274-1.789163-3.078882-2.875275-.408548.06922-.770477.09804-1.292945.147794-.597077.05254-1.194416.103068-1.79162.153995-.03906.0092-.07798.01998-.11679.02894-.651087.150514-1.315643.177948-1.974556.08578-.198594-.122351-.41233-.223417-.595829-.367419-.11789-.09251-.218091-.218324-.304892-.363802-.119394-.02199-.238165-.04723-.320911-.07648-.03779-.01336-.07394-.03085-.110588-.04703.006.07417.01349.139097.03669.303342.01516.107334.01577.218464.04806.321945.04007.128453.111234.24492.166916.367419h.000529c1.368568 3.010848-1.673109 4.393192-3.041677 1.382345-.159731-.351419-.208804-.452736-.2682-.665075-.498321-.438314-.97722-.901774-1.480013-1.334286.06717-.153125.165285-.277672.27337-.393774.03461-.06473.0693-.129551.103868-.194305.08912-.10886.178051-.217733.267168-.326593.02997-.109816.06074-.219523.08062-.330214.0271-.172661.05163-.269176.10025-.408244-.0044-.169931.0016-.340489.0067-.510045.01318-.441547.08502-.82051.197921-1.141016-.0089-.0744-.0163-.148428-.01704-.223242-.0016-.164817.004-.329819.01344-.494543zm50.556089.999422c-.02011.01662-.03082.02511-.04599.03772-.000011.000262.000011.000794 0 .0011.01476-.01214.02909-.0236.04599-.03876zm-29.948042.741039c-.0019.0055-.0038.01103-.0057.01654.0032-.0032.0074-.0053.01035-.0088.0019-.0024-.0024-.0042-.0047-.0078zm24.008868 1.189075c-.0024.0011-.0033.0016-.0057.0026-.193548-.0099-.05649.05996-.04341.04392.01291-.01582.03167-.03119.04909-.04651zm-16.158186.125058c-.32208.199009-.661305.37062-1.002006.535884-.06753.03276-.137118.06196-.205672.09302.645576.7649 1.357948 1.535234 2.183845 2.038636.325535.198416 1.375719.505103 1.662948.596863.569111.04372.955752.09356 1.551845.03152.06155-.0064.12214-.02077.182933-.03256-.02249-.06205-.04075-.113011-.06976-.189134-.11131-.188876-.218979-.379633-.33383-.566375-.09936-.161558-.21191-.315296-.308507-.478523-.332618-.562028-.63092-1.140698-.919842-1.724443-.03087.0024-.06162.0053-.0925.0078-.171413.01289-.344022.02154-.515731.01344-.578242-.02724-.847701-.07949-1.380792-.160713-.250925-.05507-.502393-.108411-.752927-.165365zm4.212145.02635c-.03468.01045-.0683.01955-.103351.02997.214376.422654.435094.841928.67696 1.250569.109633.185227.239681.358331.3483.544153.153609.262792.291687.533903.4377.800984.01281.06277.04914.125417.03876.188618-.0013.0085-.0079.01537-.01344.02273.530582-.24157.845912-.532715 1.41025-1.141531.118443-.283046.246182-.582473.365353-.885735-.492797.039-.728438-.006-1.26659-.07648-.03584-.01169-.07297-.0236-.109037-.03514-.09196.06869-.185002.136017-.275437.206706-.131056.07874-.536993.354073-.671277.227893-.295405-.277582-.475424-.656749-.644403-1.03043-.06102-.03146-.124831-.06475-.193789-.102317zm4.792475 1.540989c-.154998.09884-.317032.154871-.523483.08785-.07356.178091-.151326.363141-.238745.577226-.126521.15653-.242861.298426-.352951.429429.380836-.201427.716761-.388051 1.185974-.705381-.02384-.126254-.04503-.247434-.07079-.389126zm.280601.210844c-.01521-.0021-.02865.02805-.04237.06046.01868-.01331.0402-.03039.05943-.04444-.0057-.0069-.01154-.01527-.01707-.01603z" fill="red" stroke-width=".264583"/></clipPath><clipPath clipPathUnits="userSpaceOnUse" id="c"><path d="M18.990572 14.458549v48.104556h17.078545c-.02902-.06308-.05771-.126172-.08578-.189651-.211693.01609-.420026.0054-.612365-.07338-.517649-.21205-.521975-.700468-.550354-1.110009-.0013-.02008.0052.03998.0078.05994.07324.09535.0072.01614-.03928-.212389-.06981-.343151-.08906-.640747-.122473-.986504-.0088-.09103-.01818-.181851-.02739-.272852-.0096-.149913-.02244-.299508-.02894-.449582-.0047-.10753-.0083-.839494-.0083-.841293-.000264-.311936.0052-.662332.01757-.969452.0029-.07245.01093-.144232.01654-.216522.0086-.01365.02564-.02521.02585-.04134.0011-.08287-.10124-.222531-.02222-.247531.237702-.0752.441576-.145854.629417-.213423.0013-.02222.0027-.04445.0041-.06666-.01233-.586505-.01879-1.17338-.02429-1.760101.0024-.281829.000529-.563669.0072-.845426.01405-.584139.07757-1.166397.0956-1.750282-.0016-.04961-.0065-.09916-.0067-.148828-.00053-.108805.003-.217281.0047-.326078.0038-.09376.0064-.158718.0093-.22841-.0033-.02119-.01249-.04882.0021-.05219.02305-.475912.108154-.35722.898136-.172085.221539-.242139.419219-.471538.766879-.503328.123965-.01132.26688.0024.437182.04909.355878.09758.544949.48783.818555.743624-.04744-.100375-.09322-.201538-.129191-.306443-.03788-.11045.300172.446249.216006.382405-.03041-.02307-.05851-.0495-.08682-.07596.05418.114623.110905.228111.162779.343646v.00053c.04622-.02265.09476-.03965.149347-.04186.528399-.02143.982228.382995 1.469678.595831V14.458549zm16.401582 45.871102c-.01767.0013-.03433.0072-.05013.01551.02008.01061.04105.02405.06201.03721-.0045-.01976-.008-.03541-.01188-.05271zm-.492475.76481c-.0068.101965.07404.459626.06098.352952-.03588-.292957-.05228-.343511-.06098-.352952zm5.164027.51108c-.03699.109672-.07616.226269-.105939.314711-.07228.22012-.160169.437785-.270267.642853h.376206z" fill="red" stroke-width=".264583"/></clipPath><clipPath clipPathUnits="userSpaceOnUse" id="d"><path d="M18.990572 14.458549v48.104556h17.078545c-.02902-.06308-.05771-.126172-.08578-.189651-.211693.01609-.420026.0054-.612365-.07338-.517649-.21205-.521975-.700468-.550354-1.110009-.0013-.02008.0052.03998.0078.05994.07324.09535.0072.01614-.03928-.212389-.06981-.343151-.08906-.640747-.122473-.986504-.0088-.09103-.01818-.181851-.02739-.272852-.0096-.149913-.02244-.299508-.02894-.449582-.0047-.10753-.0083-.839494-.0083-.841293-.000264-.311936.0052-.662332.01757-.969452.0029-.07245.01093-.144232.01654-.216522.0086-.01365.02564-.02521.02585-.04134.0011-.08287-.10124-.222531-.02222-.247531.237702-.0752.441576-.145854.629417-.213423.0013-.02222.0027-.04445.0041-.06666-.01233-.586505-.01879-1.17338-.02429-1.760101.0024-.281829.000529-.563669.0072-.845426.01405-.584139.07757-1.166397.0956-1.750282-.0016-.04961-.0065-.09916-.0067-.148828-.00053-.108805.003-.217281.0047-.326078.0038-.09376.0064-.158718.0093-.22841-.0033-.02119-.01249-.04882.0021-.05219.02305-.475912.108154-.35722.898136-.172085.221539-.242139.419219-.471538.766879-.503328.123965-.01132.26688.0024.437182.04909.355878.09758.544949.48783.818555.743624-.04744-.100375-.09322-.201538-.129191-.306443-.03788-.11045.300172.446249.216006.382405-.03041-.02307-.05851-.0495-.08682-.07596.05418.114623.110905.228111.162779.343646v.00053c.04622-.02265.09476-.03965.149347-.04186.528399-.02143.982228.382995 1.469678.595831V14.458549zm16.401582 45.871102c-.01767.0013-.03433.0072-.05013.01551.02008.01061.04105.02405.06201.03721-.0045-.01976-.008-.03541-.01188-.05271zm-.492475.76481c-.0068.101965.07404.459626.06098.352952-.03588-.292957-.05228-.343511-.06098-.352952zm5.164027.51108c-.03699.109672-.07616.226269-.105939.314711-.07228.22012-.160169.437785-.270267.642853h.376206z" fill="red" stroke-width=".264583"/></clipPath></defs><g transform="translate(0 6.7597739)"><g fill="none" stroke="#000" stroke-width="2.5"><path d="M56.95750783 62.607885V50.313489M62.34542283 62.607885V50.313489M67.73333183 62.607885V50.313489M73.12124983 62.607885V50.313489M78.50915883 62.607885V50.313489"/></g><g fill="none" stroke="#000" stroke-width="2.5"><rect width="66.41571" height="77.277473" x="34.525478" y="28.96096" rx="18.605782" ry="18.605782" clip-path="url(#a)"/><rect width="39.555889" height="43.56493" x="47.955387" y="19.644312" rx="9" ry="9" clip-path="url(#b)"/><path d="M34.660416 53.710416s-7.14375 1.5875-7.276041-3.96875c-.132292-5.55625-.396875-31.321025-.396875-31.321025s-.748355-2.358552-2.958566-2.584389c-2.109812-.215577-3.788309-.09354-3.788309-.09354v36.473752s3.96875 10.754372 13.890624 8.042394c10.26135-2.804768 1.719792-6.68073 1.719792-6.68073z" clip-path="url(#c)" transform="matrix(-1 0 0 1 135.64615833 -.00001588)"/><path d="M34.660416 53.710416s-7.14375 1.5875-7.276041-3.96875c-.132292-5.55625-.396875-31.321025-.396875-31.321025s-.748355-2.358552-2.958566-2.584389c-2.109812-.215577-3.788309-.09354-3.788309-.09354v36.473752s3.96875 10.754372 13.890624 8.042394c10.26135-2.804768 1.719792-6.68073 1.719792-6.68073z" clip-path="url(#d)" transform="translate(-.17949167 .0071283)"/></g><g transform="translate(-3.61990576)" fill="none" stroke="#000" stroke-width="2.98805"><ellipse cx="54.094311" cy="74.255424" rx=".43647736" ry="2.7493975"/><ellipse cx="88.612167" cy="74.255081" rx=".43647736" ry="2.7493975"/></g><rect width="24.390629" height="14.284386" x="55.538021" y="84.509895" rx="4.9561863" ry="5.951827" fill="none" stroke="#000" stroke-width="2.71561"/><g transform="translate(1.22193502)"><circle cx="71.367027" cy="89.197807" r="1.5"/><circle cx="61.655769" cy="89.197998" r="1.5"/></g></g></svg>